<svg id="logo-food-data-institute-usa" xmlns="http://www.w3.org/2000/svg" xml:space="preserve" viewBox="0 0 833 242">
<g transform="translate(4.477 -.8)">
<g transform="translate(129.161)">
<path d="M0 1.16h490.5v180H0z" style="fill:none;stroke:none;stroke-linecap:round;stroke-linejoin:round;stroke-width:.72"/>
<text x="4" y="75.16" style="fill:#9c9c9c; font-family:Raleway-ExtraBold; font-size:5.5em; letter-spacing:-.0416667em">Food Data<tspan x="4" dy=".862em" style="font-size:1em">Institute USA</tspan></text>
</g>
<g transform="translate(0 -7.1)">
<g transform="translate(25.524 -93.194)"><path d="M0 175.503h5.702v5.657H0z" style="fill:#9c9c9c;stroke:none;stroke-linecap:butt;stroke-width:4.45447"/></g>
<g transform="translate(42.852 -132.349)"><path d="M0 175.458h5.702v5.702H0z" style="fill:#9c9c9c;stroke:none;stroke-linecap:butt;stroke-width:4.45447"/></g>
<g transform="translate(49.356 -85.443)"><path d="m0 158.62 11.98 8.06v14.48L0 172.96v-14.34Z" style="fill:#9c9c9c;stroke:none;stroke-linecap:butt;stroke-width:4.45447"/></g>
<g transform="translate(49.356 -61.834)"><path d="m0 157.73 11.98 8.2v15.23L0 172.96v-15.23Z" style="fill:#9c9c9c;stroke:none;stroke-linecap:butt;stroke-width:4.45447"/></g>
<g transform="translate(61.962 -29.45)"><path d="M0 175.458h5.702v5.702H0z" style="fill:#9c9c9c;stroke:none;stroke-linecap:butt;stroke-width:4.45447"/></g>
<g transform="translate(68.243 -85.443)"><path d="m0 166.73 11.31-7.26v13.98L0 181.16v-14.43Z" style="fill:#9c9c9c;stroke:none;stroke-linecap:butt;stroke-width:4.45447"/></g>
<g transform="translate(68.243 -61.656)"><path d="M0 165.75 11.31 158v15.81L0 181.16v-15.41Z" style="fill:#9c9c9c;stroke:none;stroke-linecap:butt;stroke-width:4.45447"/></g>
<g transform="translate(98.355 -120.589)"><path d="M0 175.458h5.702v5.702H0z" style="fill:#9c9c9c;stroke:none;stroke-linecap:butt;stroke-width:4.45447"/></g>
<g><path d="M122.68 15.36H6.86A6.86 6.86-180 0 0 0 22.26v92.39a64.813 64.813-180 1 0 129.58 0V22.26a6.86 6.86-180 0 0-6.9-6.9Zm-11.76 52.12h-6.28v11.71L86.42 91.66v24.24l-18.18 11.84v11.36h6.28v19.47H55.06V139.1h6.28v-11.4l-36.39-24.81v-7.97h-6.29V75.4h19.47v19.52h-6.28v4.45l10.65 7.26V55.72h-6.55V36.25h19.46v19.47h-6.05v9.13l15.5 10.42 21.56-13.85v21.87l11.31-7.71v-8.1h-6.28V48.01h19.47v19.47Z" style="fill:#9c9c9c;stroke:none;stroke-linecap:butt;stroke-width:4.45447"/></g>
</g>
</g>
</svg>