<svg id="logo-export-import-data-usa" xmlns="http://www.w3.org/2000/svg" style="font-size:12px;" viewBox="0 0 568 191">
<g transform="translate(.148 -4.856)">
<g transform="matrix(1 0 0 -1 0 202.452)">
<path d="M70.1 187.33c-31.69-6.33-56.9-28.78-66.67-59.4-2.9-8.98-3.43-12.81-3.3-26.14.13-16.76 2.25-26.4 8.58-38.94 11.62-22.84 34.72-40.26 59.8-45.15 12.94-2.5 34.59-1.05 46.6 3.17l9.9 3.43 9.9-3.56c8.98-3.3 11.48-3.7 27.72-3.7 14.65 0 19.41.53 27.06 2.91 36.57 11.48 62.31 49.24 59.67 87.52-3.17 44.09-36.57 77.35-81.45 81.45-9.77.79-25.48-1.85-36.56-6.34l-7-2.77-6.86 2.77c-15.85 6.34-31.42 7.92-47.39 4.75Zm28.24-19.67c11.75-2.24 20.2-6.33 30.37-14.65 6.33-5.15 15.44-15.97 15.44-18.35 0-.39-1.58-.79-3.56-.79-8.32-.13-9.64-4.22-9.64-30.1 0-21.51 1.19-30.23 4.22-32.08.93-.66 13.34-1.18 27.59-1.18 23.1 0 26.27.26 28.91 2.37 2.91 2.38 2.91 2.91 2.78 29.31-.27 32.74.39 31.68-16.77 31.68h-11.09l-3.43 7c-3.96 7.65-8.32 13.99-14.26 20.32-2.11 2.38-3.56 4.63-3.3 5.02 1.85 1.72 15.98 3.3 23.63 2.51 27.99-2.77 51.62-23.1 58.74-50.3 8.85-33.66-10.42-68.24-44.48-79.73-10.56-3.43-29.44-3.43-41.06.13-14.38 4.49-30.09 16.77-36.03 28.12-1.85 3.43-1.85 3.57 1.85 3.57 1.98 0 4.88.79 6.33 1.84 2.38 1.72 2.51 3.96 2.91 28.91.52 35.51 3.3 32.61-31.42 32.61-21.25 0-26.27-.4-28.78-2.11-2.9-1.98-2.9-2.64-2.9-29.04 0-33.4-.66-32.21 17.16-32.21 8.31 0 11.88-.53 11.88-1.59 0-2.77 10.56-19.4 15.97-25.08 2.77-3.03 4.75-5.81 4.36-6.2-.4-.4-7.13-.93-14.92-1.19-19.8-.79-29.31 2.24-44.62 13.73-15.18 11.35-25.48 32.34-25.48 52.01 0 28.64 21.13 56.76 48.19 63.89 15.31 3.96 17.95 4.09 31.41 1.58Zm-1.18-55.7c1.18-3.04.92-18.09-.4-20.07-.66-1.19-3.96-1.58-11.48-1.32l-10.43.4-.4 9.77c-.26 5.41-.13 10.56.27 11.61 1.05 2.77 21.38 2.38 22.44-.39Zm77.09-10.04.39-11.61h-11.35c-6.2 0-11.35.39-11.35 1.05-.92 4.49-.53 19.8.53 21.12.92 1.19 4.35 1.59 11.35 1.32l10.03-.39.4-11.49Z" style="fill:#5500d7;stroke:#1f64ff;stroke-linecap:butt;stroke-width:.261538"/>
</g>
<g transform="translate(261 -111.244)"><path d="M0 118.5h270v72H0z" style="fill:none;stroke:none;stroke-linecap:round;stroke-linejoin:round;stroke-width:.72"/><text x="4" y="173.7" style="fill:#7f7f7f;font-family:RussoOne-Regular;font-size:5.33334em;letter-spacing:.078125em">Export</text></g>
<g transform="translate(261 -57.244)"><path d="M0 118.5h288v72H0z" style="fill:none;stroke:none;stroke-linecap:round;stroke-linejoin:round;stroke-width:.72"/><text x="4" y="173.7" style="fill:#7f7f7f;font-family:RussoOne-Regular;font-size:5.33334em">Import</text></g>
<g transform="translate(258.525 -3.244)"><path d="M0 127.5h166.725v63H0z" style="fill:none;stroke:none;stroke-linecap:round;stroke-linejoin:round;stroke-width:.72"/><text x="4" y="178.8" style="fill:#7f7f7f;font-family:RussoOne-Regular;font-size:5.50001em">Data</text></g>
<g transform="translate(429.525)"><path d="M0 127.5h137.475v63H0z" style="fill:none;stroke:none;stroke-linecap:round;stroke-linejoin:round;stroke-width:.72"/><text x="4" y="175.8" style="fill:#7f7f7f;font-family:RussoOne-Regular;font-size:4.66667em">USA</text></g>
</g>
</svg>